{"accessors" : [{"bufferView" : 0, "byteOffset" : 0, "componentType" : 5125, "count" : 647316, "type" : "SCALAR", "max" : [117639], "min" : [0]}, {"bufferView" : 1, "byteOffset" : 0, "componentType" : 5126, "count" : 117640, "type" : "VEC3", "max" : [40.32935333251953, 77.43060302734375, 92.65599060058594], "min" : [-58.94105529785156, 31.856504440307617, -106.041748046875]}, {"bufferView" : 1, "byteOffset" : 12, "componentType" : 5126, "count" : 117640, "type" : "VEC2", "max" : [1, -0], "min" : [0, -1]}, {"bufferView" : 0, "byteOffset" : 2589264, "componentType" : 5123, "count" : 22500, "type" : "SCALAR", "max" : [4642], "min" : [0]}, {"bufferView" : 2, "byteOffset" : 0, "componentType" : 5126, "count" : 4643, "type" : "VEC3", "max" : [25.03408432006836, 35.92988204956055, 44.78319549560547], "min" : [-25.5601806640625, 0.1275620013475418, -23.182109832763672]}, {"bufferView" : 2, "byteOffset" : 12, "componentType" : 5126, "count" : 4643, "type" : "VEC2", "max" : [1, -0], "min" : [0, -1]}], "asset" : {"generator" : "Aspose.3D 20.12", "version" : "2.0"}, "buffers" : [{"uri" : "buffer.bin", "byteLength" : 16030596}], "bufferViews" : [{"buffer" : 0, "byteOffset" : 0, "byteLength" : 2634264, "target" : 34963}, {"buffer" : 0, "byteOffset" : 2634268, "byteLength" : 12946320, "byteStride" : 20, "target" : 34962}, {"buffer" : 0, "byteOffset" : 15580592, "byteLength" : 450000, "byteStride" : 20, "target" : 34962}], "meshes" : [{"primitives" : [{"attributes" : {"POSITION" : 1, "TEXCOORD_0" : 2}, "indices" : 0, "mode" : 4}]}, {"primitives" : [{"attributes" : {"POSITION" : 4, "TEXCOORD_0" : 5}, "indices" : 3, "mode" : 4}]}], "nodes" : [{"mesh" : 0, "name" : "Enterprise_1"}, {"mesh" : 1, "name" : "Cube_1"}], "scene" : 0, "scenes" : [{"nodes" : [0, 1]}]}