<svg xmlns="http://www.w3.org/2000/svg" width="455" height="499" viewBox="0 0 455 499">
    <g fill="none" fill-rule="evenodd">
        <path fill="#231F20" d="M221.049 8.975c10.94-6.42 25.137-7.954 37.703-7.5.285.146.49.411.56.724.07.313-.003.641-.198.895-4.86 2.7-10.309 4.974-14.645 8.138 18.803-1.62 38.69 2.619 53.066 15.007-2.258 1.08-6.054.723-8.856.27-1.718-.092-4.32-1.172-6.513-.27 7.598 7.241 16.908 10.854 23.506 19.531 5.244 5.79 9.224 12.566 10.67 19.532-4.32-3.98-10.124-5.967-14.92-9.493 0 2.889 3.44 4.52 4.86 6.869 8.954 10.395 18.539 19.618 21.428 32.546 9.855-.902 19.893 3.164 28.031 9.406 16.816-.275 36.18-5.335 52.434-8.137 1.987-.54 4.86-1.448 7.144-1.27 5.967-.631 13.198-1.171 18.533 2.263 1.177 1.534 2.62 3.073 2.895 4.86 6.777.907 15.368-.178 17.9 8.138 1.172 4.86-1.268 9.671-5.156 12.388 2.262 3.164 1.447 8.407-.632 11.388-10.665 9.315-24.5 12.48-36.526 19.17-1.263 16.54-18.803 25.855-20.158 42.31-1.62 5.243-6.512 9.039-11.394 11.118-20.974 25.499-47.282 48.46-75.492 62.834 4.252 23.396 6.552 47.104 6.874 70.88-.815 4.612 3.165 11.395-1.36 13.382-6.87.723-6.416 9.131-10.396 13.381 2.263 10.94 6.513 22.329 3.888 34.177 4.974 10.756 7.053 24.408 8.77 36.072 4.25 1.717 9.223 4.25 11.119 8.77 2.262 6.328 1.717 14.736-2.62 19.887 1.988 4.25.632 9.585-1.62 13.382-14.828 15.282-37.432 16.545-57.596 15.282-9.397-1.28-18.398-4.608-26.368-9.747-27.848 19.078-69.709 16.2-97.643-1.356-6.42-4.158-14.105-9.04-19.164-15.276-1.81-.638-3.618-.994-4.86-2.895 1.171-9.855 2.349-18.446 6.507-27.032 1.447-1.81 4.428-1.54 5.151-3.888-.632-14.105 2.16-28.842 3.98-42.31 5.94-7.322-1.809-16.74.27-24.413.632-5.875.907-11.48 2.624-17.28-2.079-1.803-6.42-2.16-4.25-6.145 8.5-24.23 10.034-50.355 13.652-76.215-.54-2.08-2.986-1.264-4.52-1.896-20.612-6.69-39.15-21.157-54.34-39.058-11.119-2.263-7.5-15.66-15.66-19.888-6.34-10.568-17.005-20.423-22.794-30.926-.723-2.263-.091-5.519.994-7.776-12.566-8.591-25.223-18.986-38.06-26.762-3.077-3.24-5.156-8.23-3.24-12.296-1.986-1.177-3.887-2.62-4.61-4.86v-3.019c.296-3.402 1.662-6.404 4.61-8.375 4.86-1.356 10.488-1.08 14.284-4.86 16.351-6.442 29.732 5.308 44.917 8.742 6.782 1.901 14.04 3.888 20.52 5.881 6.329.724 13.381 3.704 19.796 3.24 3.618-1.62 1-7.77 3.618-10.757 0-3.71 2.263-7.776 3.24-11.118l-10.125 8.137c-1.355-.367-.183-1.9-.275-2.894 2.894-15.46 11.486-28.75 22.059-40.684-5.238 1.442-10.211 5.876-15.277 8.77-.847.262-1.732.384-2.619.362 4.79-15.19 20.342-27.033 33.27-35.17-4.072-.994-8.046 1.987-12.118 0 13.284-12.602 30.345-20.48 48.552-22.421-5.514-1-9.855-4.795-16-4.25l.993-.994c12.658-3.71 25.947-6.874 39.058-5.518-3.888-4.067-9.137-6.48-14.04-9.132 2.421-.502 4.883-.779 7.355-.826h2.133c9.585.238 19.278 3.613 27.081 8.975M321.224 98.82l-4.86-4.86 2.981 8.77 1.88-3.91zm1.62 14.92c2.7 7.23 2.895 15.822 3.618 23.415.27 1.177-1.62 2.619 0 3.24 1.718-5.881 2.08-12.388 6.48-17.178-3.342-3.348-6.145-6.15-9.401-9.493l-.697.016zm-4.86 19.257c.816 8.856 1.62 19.256-1.895 27.302l.632-1.264c4.428-1.36 3.612-6.604 6.48-9.493 6.059-6.604-2.441-11.21-5.244-16.545m-7.403 14.963c-.902 10.217 2.079 20.795-2.619 29.295 4.52-4.52 3.888-11.21 7.5-16.276-.618.144-1.262-.107-1.62-.631.816-4.52-2.624-8.5-3.24-12.388m-8.86 31.282c-2.08 5.427-5.244 10.487-8.133 15.66.902-.183 2.257.27 2.619-.362l-.654-.68c2.16-4.86 10.125-7.77 6.146-14.645M149.72 184.73l-1.9 6.512 3.24 5.513c1.717 1.178.27 4.25 2.532 4.612-.637-5.783-4.32-11.21-3.888-16.637"/>
        <path fill="#FDD2B9" d="M433.242 102.368c-13.7 1.547-27.084 5.175-39.69 10.757-.092.361-1.08.54-.724 1.269 4.86.54 8.77-3.24 13.382-4.158 12.295-3.165 28.026-7.236 41.315-3.618 2.225 1.354 3.77 3.59 4.25 6.15-.27 3.073-.907 6.48-3.888 7.863-8.678-5.79-17.54-1.54-27.394-.362-4.704 2.44-10.579 2.802-14.283 6.874 1.08.27 2.889-.184 3.612-.999 11.032-2.98 24.684-9.763 35.802-2.889 2.085 2.079 2.16 4.25 1.62 7.139-2.354 7.684-11.572 9.585-17.9 13.29-10.671 4.433-21.158 9.406-31.915 13.38l-.362-.361-1.247.977c-1.264.454-3.434.362-4.86 1.36-13.468 2.16-27.572-.998-36.434-12.387-10.125-11.934-17.36-26.4-30.013-35.802-.815-2.7-2.533-5.875-.907-8.77 3.526-5.335 10.217-4.795 15.914-4.25 8.224 2.533 15.822 7.323 22.42 13.02l.362-.362-3.24-3.526c14.58-2.802 28.933-4.25 43.308-8.138 5.875-.091 13.381-2.619 19.165-1.62 3.78-.091 9.855.724 11.756 5.152"/>
        <path stroke="#FDD2B9" stroke-width=".5" d="M433.242 102.368c-13.7 1.547-27.084 5.175-39.69 10.757-.092.361-1.08.54-.724 1.269 4.86.54 8.77-3.24 13.382-4.158 12.295-3.165 28.026-7.236 41.315-3.618 2.225 1.354 3.77 3.59 4.25 6.15-.27 3.073-.907 6.48-3.888 7.863-8.678-5.79-17.54-1.54-27.394-.362-4.704 2.44-10.579 2.802-14.283 6.874 1.08.27 2.889-.184 3.612-.999 11.032-2.98 24.684-9.763 35.802-2.889 2.085 2.079 2.16 4.25 1.62 7.139-2.354 7.684-11.572 9.585-17.9 13.29-10.671 4.433-21.158 9.406-31.915 13.38l-.362-.361-1.247.977c-1.264.454-3.434.362-4.86 1.36-13.468 2.16-27.572-.998-36.434-12.387-10.125-11.934-17.36-26.4-30.013-35.802-.815-2.7-2.533-5.875-.907-8.77 3.526-5.335 10.217-4.795 15.914-4.25 8.224 2.533 15.822 7.323 22.42 13.02l.362-.362-3.24-3.526c14.58-2.802 28.933-4.25 43.308-8.138 5.875-.091 13.381-2.619 19.165-1.62 3.747-.08 9.806.735 11.707 5.163z"/>
        <path fill="#FDD2B9" d="M61.209 118.368c12.928 3.44 25.585 7.414 38.691 10.4-.994.724-2.803.994-2.889 2.62 3.164 1.447 4.066-2.441 6.869-2.981 9.585-4.32 20.433-10.757 30.92-5.514 1.717 1.534 4.25 3.24 4.86 5.514 1.54 8.23-8.046 11.572-13.381 15.006-18.263 4.974-27.934 26.309-46.829 30.559-28.641 4.228-47.628-21.881-70.319-33.54-2.094-2.403-2.84-5.698-1.987-8.77 2.533-4.703 8.316-5.604 13.743-5.518 10.487 1.355 20.158 6.69 28.566 14.04l.724-.637c-9.402-10.579-23.415-17.28-37.428-15.66-2.624.723-4.86 2.257-7.236 3.526-.901-.454-2.16-1.447-2.257-2.533-.349-2.779.36-5.587 1.987-7.867 5.876-5.06 13.835-2.528 20.796-2.258 11.934 2.895 22.329 9.31 33.177 14.645.454-.178.362-.632.362-.993-12.204-8.408-25.223-14.737-40.052-16.908 14.467-6.869 28.48 3.78 41.683 6.869"/>
        <path stroke="#FDD2B9" stroke-width=".5" d="M61.209 118.368c12.928 3.44 25.585 7.414 38.691 10.4-.994.724-2.803.994-2.889 2.62 3.164 1.447 4.066-2.441 6.869-2.981 9.585-4.32 20.433-10.757 30.92-5.514 1.717 1.534 4.25 3.24 4.86 5.514 1.54 8.23-8.046 11.572-13.381 15.006-18.263 4.974-27.934 26.309-46.829 30.559-28.641 4.228-47.628-21.881-70.319-33.54-2.094-2.403-2.84-5.698-1.987-8.77 2.533-4.703 8.316-5.604 13.743-5.518 10.487 1.355 20.158 6.69 28.566 14.04l.724-.637c-9.402-10.579-23.415-17.28-37.428-15.66-2.624.723-4.86 2.257-7.236 3.526-.901-.454-2.16-1.447-2.257-2.533-.349-2.779.36-5.587 1.987-7.867 5.876-5.06 13.835-2.528 20.796-2.258 11.934 2.895 22.329 9.31 33.177 14.645.454-.178.362-.632.362-.993-12.204-8.408-25.223-14.737-40.052-16.908 14.494-6.869 28.48 3.796 41.683 6.869z"/>
        <path fill="#FFF200" fill-rule="nonzero" d="M288.403 135.54c-33.447 19.256-77.657 21.6-113.281 4.86 23.144-21.6 59.94-31.104 89.143-19.17 8.862 2.803 16.74 8.138 24.138 14.288"/>
        <path stroke="#FFF200" stroke-width=".5" d="M288.403 135.54c-33.447 19.256-77.657 21.6-113.281 4.86 23.144-21.6 59.94-31.104 89.143-19.17 8.862 2.835 16.724 8.17 24.138 14.31z"/>
        <path fill="#231F20" d="M391.565 135.54c-6.059-2.624-13.743-5.605-21.52-4.887v-.27h-.906c5.243-2.894 12.117-.362 17.177 1.62 2.079 1.08 3.17 2.527 5.249 3.526"/>
        <path fill="#FDD2B9" d="M279.634 152.82c-.724 1.177-2.16-.994-2.981.637 1.447 1.534 3.704 1.172 5.513 1.62 6.237 3.165 14.04 8.138 14.04 15.66.362 4.612-2.802 8.322-6.507 11.124-2.354 1.717-5.875 1.62-7.776 3.888l4.25.27c-8.321 10.309-16.74 21.157-27.032 30.013-.54-1.533.993-2.619 0-3.974-3.24 6.48-6.06 13.106-11.119 17.901-4.612 3.613-11.302 5.692-17.545 4.25-9.941-1.27-19.164-10.309-22.782-19.532l-.362-.27c.54 3.343 2.354 7.052 3.98 10.395-9.763-4.86-20.434-10.579-29.652-18.263.362-.993 3.613.637 4.86-.993-6.69-1.81-14.736-3.24-17.9-10.395-2.7-4.704-4.434-9.764-2.263-15.282 2.532-8.586 11.664-14.823 20.52-16.27v-.362c-3.078-1.08-5.697.723-8.5.993.362-5.243 1.62-11.664 3.888-16.907l18.533 5.243c-.994 4.434-2.079 9.315-1.62 13.921-1.495-.774-3.186-1.088-4.86-.901 4.79 2.802 11.297 6.782 13.376 12.657 1.722.816 2.354 4.428 4.25 2.895-.724-2.7-1.988-5.94-4.25-8.408 6.874-1.993 13.835.81 20.795 1.263-1.172 1.901-2.349 4.52-.632 6.513 2.62 3.24 5.336 2.44 8.77 1.62 2.803-1.81 6.059-2.625 8.861-4.52.087-.994-.993-1.62-1.62-1.993-4.79.276-10.125 9.407-14.374 2.263-.632-2.44.907-4.066 1.992-5.789h-1.62c1.81-5.513 1.901-11.027.994-16.994 4.32 0 9.045-1.08 13.656-1.62-.183 2.258.179 5.876.27 8.856-3.71 1.901-8.591 2.7-11.032 6.513l.362.27c8.36-5.164 18.143-7.54 27.94-6.783.631.724 2.619-.086 3.612.638 2.895 1.263 5.605 2.349 7.144 5.513.816 2.079 0 4.25-1.263 5.875-6.513 2.533 2.257 6.329 1.895 10.039-.178 1.895.54 2.802-.632 4.244L270.826 190c-16.74 3.704-32.821 12.474-50.452 11.389-4.066-.816-7.409-3.435-11.027-5.244.362-2.262 1.62-5.335.632-8.138l-.27-.361c-1.539 5.967-6.782 10.848-12.118 13.743-.086.453.454.631.724.907 3.618-.637 5.94-2.263 8.77-4.887 10.94 10.217 13.5 33.906 33.183 29.657 11.572-5.244 11.572-18.809 14.644-29.295 5.514-3.165 12.75-3.613 18.9-5.876 1.54-1.447 4.067-3.526 2.625-6.145-1.193-3.057-2.831-5.92-4.86-8.5 1.62-1.355 5.06-2.262 5.151-5.156 1.356-4.698-1.9-6.87-4.86-9.488-.361 0-.723.086-.993-.276.993-1.441 3.434-1.171 4.244-2.98-1.08-1.178-1.62.901-2.889.361.724-4.25-.453-8.953-.993-12.749l5.783-2.279c1.717 2.35 1.809 5.4 2.619 8.133"/>
        <path stroke="#FDD2B9" stroke-width=".5" d="M279.634 152.82c-.724 1.177-2.16-.994-2.981.637 1.447 1.534 3.704 1.172 5.513 1.62 6.237 3.165 14.04 8.138 14.04 15.66.362 4.612-2.802 8.322-6.507 11.124-2.354 1.717-5.875 1.62-7.776 3.888l4.25.27c-8.321 10.309-16.74 21.157-27.032 30.013-.54-1.533.993-2.619 0-3.974-3.24 6.48-6.06 13.106-11.119 17.901-4.612 3.613-11.302 5.692-17.545 4.25-9.941-1.27-19.164-10.309-22.782-19.532l-.362-.27c.54 3.343 2.354 7.052 3.98 10.395-9.763-4.86-20.434-10.579-29.652-18.263.362-.993 3.613.637 4.86-.993-6.69-1.81-14.736-3.24-17.9-10.395-2.7-4.704-4.434-9.764-2.263-15.282 2.532-8.586 11.664-14.823 20.52-16.27v-.362c-3.078-1.08-5.697.723-8.5.993.362-5.243 1.62-11.664 3.888-16.907l18.533 5.243c-.994 4.434-2.079 9.315-1.62 13.921-1.495-.774-3.186-1.088-4.86-.901 4.79 2.802 11.297 6.782 13.376 12.657 1.722.816 2.354 4.428 4.25 2.895-.724-2.7-1.988-5.94-4.25-8.408 6.874-1.993 13.835.81 20.795 1.263-1.172 1.901-2.349 4.52-.632 6.513 2.62 3.24 5.336 2.44 8.77 1.62 2.803-1.81 6.059-2.625 8.861-4.52.087-.994-.993-1.62-1.62-1.993-4.79.276-10.125 9.407-14.374 2.263-.632-2.44.907-4.066 1.992-5.789h-1.62c1.81-5.513 1.901-11.027.994-16.994 4.32 0 9.045-1.08 13.656-1.62-.183 2.258.179 5.876.27 8.856-3.71 1.901-8.591 2.7-11.032 6.513l.362.27c8.36-5.164 18.143-7.54 27.94-6.783.631.724 2.619-.086 3.612.638 2.895 1.263 5.605 2.349 7.144 5.513.816 2.079 0 4.25-1.263 5.875-6.513 2.533 2.257 6.329 1.895 10.039-.178 1.895.54 2.802-.632 4.244L270.826 190c-16.74 3.704-32.821 12.474-50.452 11.389-4.066-.816-7.409-3.435-11.027-5.244.362-2.262 1.62-5.335.632-8.138l-.27-.361c-1.539 5.967-6.782 10.848-12.118 13.743-.086.453.454.631.724.907 3.618-.637 5.94-2.263 8.77-4.887 10.94 10.217 13.5 33.906 33.183 29.657 11.572-5.244 11.572-18.809 14.644-29.295 5.514-3.165 12.75-3.613 18.9-5.876 1.54-1.447 4.067-3.526 2.625-6.145-1.193-3.057-2.831-5.92-4.86-8.5 1.62-1.355 5.06-2.262 5.151-5.156 1.356-4.698-1.9-6.87-4.86-9.488-.361 0-.723.086-.993-.276.993-1.441 3.434-1.171 4.244-2.98-1.08-1.178-1.62.901-2.889.361.724-4.25-.453-8.953-.993-12.749l5.783-2.279c1.712 2.35 1.804 5.438 2.614 8.138z"/>
        <path fill="#231F20" d="M82.36 146.038c-7.5 1.171-13.829 1.355-21.151 3.888l-.632-.638c6.145-5.06 14.1-4.158 21.784-3.24"/>
        <path fill="#FFF" d="M270.14 155.439c-1.08 1.62 1.178 5.605-1.895 5.513-1.9-.815-4.52.362-6.237-.993 2.527-3.78-3.164-13.5 6.237-12.026 1.717 1.809 1.447 4.973 1.895 7.506M254.232 155.8c-.184 1.264-.907 2.803-2.263 2.895-1.186-.097-2.208-.875-2.619-1.992-.091-1.988-.183-4.158 2.258-4.158 1.9.091 2.44 1.539 2.624 3.24M211.286 155.439c-.092 1.987.453 4.52-1.987 5.243-.873.046-1.724-.28-2.341-.899-.618-.617-.945-1.468-.9-2.34-.27-1.62.362-2.803 1.264-3.98 1.717-.179 3.71.091 3.98 1.992M228.825 155.077c.27 5.06.994 11.027-.632 15.66-4.066.54-7.144-.448-11.394-.632 4.158-4.158 4.25-10.033 5.88-15.276 1.804-.362 3.889.632 6.146.27"/>
        <path fill="#FFF200" fill-rule="nonzero" d="M335.88 194.135c13.381 7.955 28.933 9.494 44.933 6.237 2.803-1.809 6.151-2.986 8.5-5.243.54 4.066-4.32 6.059-7.144 8.77-19.618 9.04-44.21 2.619-59.578-12.658-7.053-7.322-10.487-16.907-6.48-26.67l1.263-2.625c-1.62 13.29 7.506 26.039 18.533 32.19"/>
        <path stroke="#FFF200" stroke-width=".5" d="M335.88 194.135c13.381 7.955 28.933 9.494 44.933 6.237 2.803-1.809 6.151-2.986 8.5-5.243.54 4.066-4.32 6.059-7.144 8.77-19.618 9.04-44.21 2.619-59.578-12.658-7.053-7.322-10.487-16.907-6.48-26.67l1.263-2.625c-1.663 13.29 7.468 26.039 18.506 32.19z"/>
        <path fill="#FFF" d="M205.41 170.446l-3.617-2.625v-4.86c.723 2.7 2.44 5.249 3.618 7.506"/>
        <path fill="#231F20" d="M269.147 173.34c-.902 2.619-4.52 2.803-6.507 4.86-5.875 4.86-14.92 7.23-22.783 4.25v-.632c9.763 2.889 19.98-1.539 26.757-9.131.816.178 2.08-.54 2.533.631"/>
        <path fill="#ED1C24" fill-rule="nonzero" d="M339.849 206.518c10.665 4.25 23.76 5.697 35.1 2.624-17.54 24.77-43.94 44.48-69.617 57.953-1.447-2.986-.993-6.69-2.894-9.493h-.994c.54 7.322 1.08 16.27 3.888 23.506 1.717 14.736 3.165 30.737 3.888 44.82-14.283-5.697-28.296-14.645-40.322-23.053-3.98-3.24-7.776-6.604-12.025-8.77v-.723c-5.876-4.795-11.389-9.223-16.632-14.92 9.671-13.29 20.066-23.323 29.29-37.158 6.242-9.585 12.479-18.36 17.28-28.571 2.44-.994 1.538-4.79 4.519-4.86.994-1.08 1.809-2.527.994-3.974l-5.244-4.86 12.118-3.888c-.54-.184-.907-.908-1.62-.632 6.604-5.335 10.038-11.756 13.926-18.538 2.35 14.288 15.185 25.86 28.388 30.558"/>
        <path stroke="#ED1C24" stroke-width=".5" d="M339.849 206.518c10.665 4.25 23.76 5.697 35.1 2.624-17.54 24.77-43.94 44.48-69.617 57.953-1.447-2.986-.993-6.69-2.894-9.493h-.994c.54 7.322 1.08 16.27 3.888 23.506 1.717 14.736 3.165 30.737 3.888 44.82-14.283-5.697-28.296-14.645-40.322-23.053-3.98-3.24-7.776-6.604-12.025-8.77v-.723c-5.876-4.795-11.389-9.223-16.632-14.92 9.671-13.29 20.066-23.323 29.29-37.158 6.242-9.585 12.479-18.36 17.28-28.571 2.44-.994 1.538-4.79 4.519-4.86.994-1.08 1.809-2.527.994-3.974l-5.244-4.86 12.118-3.888c-.54-.184-.907-.908-1.62-.632 6.604-5.335 10.038-11.756 13.926-18.538 2.306 14.266 15.142 25.839 28.345 30.537z"/>
        <path fill="#FFF200" fill-rule="nonzero" d="M139.682 200.372c-9.947 15.914-28.388 27.395-48.19 26.04-.98-.564-2.12-.786-3.24-.633-5.065-1.36-11.934-3.888-12.75-10.13 15.12 9.769 36.073 6.242 49.546-4.52 9.223-9.401 16.994-20.612 15.552-33.27 5.605 6.691 2.349 15.823-.907 22.513"/>
        <path stroke="#FFF200" stroke-width=".5" d="M139.682 200.372c-9.947 15.914-28.388 27.395-48.19 26.04-.98-.564-2.12-.786-3.24-.633-5.065-1.36-11.934-3.888-12.75-10.13 15.12 9.769 36.073 6.242 49.546-4.52 9.223-9.401 16.994-20.612 15.552-33.27 5.594 6.691 2.338 15.823-.918 22.513z"/>
        <path fill="#ED1C24" fill-rule="nonzero" d="M149.72 202.991c2.441.362 3.073 3.71 5.244 4.526.81-1.27-.184-2.625-.362-3.888 4.066.086 7.322 2.16 11.119 2.889-1.356 1.809-4.704 3.164-2.987 5.88 1.448 1.534 3.348 2.08 5.244 2.62 11.94 21.335 24.3 42.945 40.689 62.834-21.881 18.986-45.84 34.176-71.334 43.578 4.428-16.454 3.072-36.18 7.5-53.072 1.901-.453 3.888.908 5.52-.993l-1.27-1.27.362-.361c-1.08-1.62-2.257 0-3.613-.902-22.68-4.32-41.04-17.717-56.959-35.532 21.967 3.165 43.486-10.033 54.335-29.921.184-2.355 2.263-3.98 1.987-6.513 2.16 3.073 4.974 6.691 4.525 10.125"/>
        <path stroke="#ED1C24" stroke-width=".5" d="M149.72 202.991c2.441.362 3.073 3.71 5.244 4.526.81-1.27-.184-2.625-.362-3.888 4.066.086 7.322 2.16 11.119 2.889-1.356 1.809-4.704 3.164-2.987 5.88 1.448 1.534 3.348 2.08 5.244 2.62 11.94 21.335 24.3 42.945 40.689 62.834-21.881 18.986-45.84 34.176-71.334 43.578 4.428-16.454 3.072-36.18 7.5-53.072 1.901-.453 3.888.908 5.52-.993l-1.27-1.27.362-.361c-1.08-1.62-2.257 0-3.613-.902-22.68-4.32-41.04-17.717-56.959-35.532 21.967 3.165 43.486-10.033 54.335-29.921.184-2.355 2.263-3.98 1.987-6.513 2.171 3.073 4.974 6.691 4.525 10.125z"/>
        <path fill="#0272BA" fill-rule="nonzero" d="M289.04 205.254c-1.62 2.986-5.88 2.624-8.77 3.888-4.61.362-8.682 1.717-13.019 2.619 2.981-4.52 6.961-7.77 10.395-12.02 4.424.073 8.591 2.09 11.394 5.513"/>
        <path stroke="#0272BA" stroke-width=".5" d="M289.04 205.254c-1.62 2.986-5.88 2.624-8.77 3.888-4.61.362-8.682 1.717-13.019 2.619 2.981-4.52 6.961-7.77 10.395-12.02 4.424.073 8.591 2.09 11.394 5.513h0z"/>
        <path fill="#0272BA" fill-rule="nonzero" d="M189.767 215.017V216c-7.863-1.534-16.362-1.534-23.76-4.25 0-4.79 5.88-5.513 9.493-6.869 4.86 2.895 9.585 7.231 14.283 10.125"/>
        <path stroke="#0272BA" stroke-width=".5" d="M189.767 215.017V216c-7.863-1.534-16.362-1.534-23.76-4.25 0-4.79 5.88-5.513 9.493-6.869 4.86 2.906 9.569 7.242 14.267 10.136z"/>
        <path fill="#ED1C24" fill-rule="nonzero" d="M245.462 217.28c-.815 3.526-4.071 5.967-7.236 7.139-5.513.631-12.204-1.448-15.276-7.501-1.177-1.177-1.81-3.164-3.24-4.52 3.434-4.32 9.131-.275 13.02.994 1.986.81 2.44 3.434 4.61 3.888.816-2.441-2.624-3.24-3.979-4.86l-4.52-2.263c5.427-1.62 14.197.632 16.638 7.144"/>
        <path stroke="#ED1C24" stroke-width=".5" d="M245.462 217.28c-.815 3.526-4.071 5.967-7.236 7.139-5.513.631-12.204-1.448-15.276-7.501-1.177-1.177-1.81-3.164-3.24-4.52 3.434-4.32 9.131-.275 13.02.994 1.986.81 2.44 3.434 4.61 3.888.816-2.441-2.624-3.24-3.979-4.86l-4.52-2.263c5.411-1.647 14.159.61 16.621 7.123z"/>
        <path fill="#FFF" d="M286.778 209.774c-13.5 24.051-29.473 47.644-49.183 67.716l.361 2.262c20.974 19.71 46.29 37.428 71.604 48.546 1.264 8.138.184 13.743.994 22.06-30.375-9.764-54.875-28.837-78.84-50.717l-7.144-8.138c-1.81.632-3.073 2.624-4.52 3.888-26.487 23.22-55.782 42.4-89.235 50.085 3.618-8.494 1.08-22.87 13.381-24.408 9.763-3.526 19.802-9.493 29.295-15.277l-.362-.275c3.527-1.172 7.14-3.78 10.487-6.237l-.362-.27c2.08-.27 4.32-2.625 6.146-3.618l22.512-17.28c.276-2.441-2.16-2.257-2.98-3.888-14.65-18.08-27.395-37.52-37.072-57.948 5.52 0 10.94 1.08 17.28 2.258 9.8 16.228 21.122 31.485 33.815 45.565 1.534.907 3.24 1.269 4.612-.27 6.869-8.23 15.908-17.178 22.42-26.4 8.225-4.79 16.363-13.468 16.908-22.783 5.967-2.62 13.468-2.7 19.888-4.86"/>
        <path fill="#ED1C24" fill-rule="nonzero" d="M227.2 238.07c1.717-1.62 5.151.183 7.776 0 3.612-.994 8.586.723 12.112 0-7.23 8.77-13.381 17.36-22.513 24.143-2.349-1.177-3.526-4.52-6.145-5.519l.27-.361-15.552-20.159c6.782 3.527 17.091 8.586 24.052 1.896"/>
        <path stroke="#ED1C24" stroke-width=".5" d="M227.2 238.07c1.717-1.62 5.151.183 7.776 0 3.612-.994 8.586.723 12.112 0-7.23 8.77-13.381 17.36-22.513 24.143-2.349-1.177-3.526-4.52-6.145-5.519l.27-.361-15.552-20.159c6.782 3.527 17.091 8.586 24.052 1.896z"/>
        <path fill="#ED1C24" fill-rule="nonzero" d="M308.205 352.35c-20.795 6.777-39.598 10.579-61.84 13.014-18.36 1.539-33.448.097-52.71-1.264-1.356-1.62-2.981.362-4.52-.723-16-2.441-28.928-6.237-43.94-11.027l-10.395-4.525c32.73-10.033 63.105-29.83 88.782-52.796 25.92 24.5 52.887 45.473 84.623 57.321"/>
        <path stroke="#ED1C24" stroke-width=".5" d="M308.205 352.35c-20.795 6.777-39.598 10.579-61.84 13.014-18.36 1.539-33.448.097-52.71-1.264-1.356-1.62-2.981.362-4.52-.723-16-2.441-28.928-6.237-43.94-11.027l-10.395-4.525c32.73-10.033 63.105-29.83 88.782-52.796 25.947 24.5 52.898 45.473 84.623 57.321z"/>
        <path fill="#231F20" d="M237.6 315.554c2.624 4.32-.27 8.856-2.619 12.383-4.52 2.532-8.138 5.157-13.927 3.618-4.973-1.356-9.763-5.697-10.125-11.119 0-4.52 3.073-8.678 7.145-10.762 6.96-2.89 15.822-1.62 19.526 5.88"/>
        <path fill="#FFF" d="M225.569 312.028c-3.24.81-4.86 3.78-6.507 6.48-1.356 3.165 0 6.237 1.987 8.77-1.62.27-3.78-1.901-4.86-3.618-.902-2.441-1.264-5.152.27-7.5 2.103-2.893 5.569-4.471 9.131-4.159"/>
        <path fill="#231F20" d="M236.963 343.58c.632 3.98.723 8.586-2.625 11.389-4.25 4.066-11.026 5.789-16.27 3.526-3.132-1.299-5.764-3.57-7.506-6.48-1.263-3.164-.453-7.052.724-10.038 3.618-5.606 10.217-6.48 16.275-5.876 3.24 1.178 7.776 3.527 9.402 7.506"/>
        <path fill="#FFF" d="M217.436 346.831c.27 3.078.362 6.42 3.24 8.413-1.717-.815-6.058-2.16-6.868-5.518-.724-2.08-.092-4.428.993-6.146 2.16-2.44 4.974-3.526 7.868-4.25-2.803 1.54-4.163 4.699-5.243 7.501"/>
        <path fill="#0272BA" fill-rule="nonzero" d="M143.84 355.239c-1.264 10.946-3.073 23.22-.902 33.907-4.158 16.632-5.335 34.084-6.512 52.347-3.073 1.534-7.501-.362-10.487 1.62 1.717.54 3.164 1.901 5.243 1.356-4.52 5.94-4.698 14.466-4.86 21.427-2.802 1.08-6.237-.27-8.77-1.896 0-8.77 2.16-16.74 5.52-24.138 11.388-3.78 3.882-19.17 6.48-27.307 1.538-10.395 3.342-20.704 5.513-30.92-3.24-8.949-2.257-20.974.362-29.928 2.7 1.361 5.788 2.08 8.407 3.527"/>
        <path stroke="#0272BA" stroke-width=".5" d="M143.84 355.239c-1.264 10.946-3.073 23.22-.902 33.907-4.158 16.632-5.335 34.084-6.512 52.347-3.073 1.534-7.501-.362-10.487 1.62 1.717.54 3.164 1.901 5.243 1.356-4.52 5.94-4.698 14.466-4.86 21.427-2.802 1.08-6.237-.27-8.77-1.896 0-8.77 2.16-16.74 5.52-24.138 11.388-3.78 3.882-19.17 6.48-27.307 1.538-10.395 3.342-20.704 5.513-30.92-3.24-8.949-2.257-20.974.362-29.928 2.716 1.367 5.794 2.085 8.413 3.532z"/>
        <path fill="#FFF" d="M159.214 359.219c-.816 10.4-2.625 20.342-1 30.558-3.526 15.552-6.598 30.829-6.236 47.196l-12.658 4.52c.724-17.723.454-35.1 6.512-51.354-.815-8.316-1.809-16.545-.637-25.38.184-2.894.816-6.966 1.901-9.131l12.118 3.59z"/>
        <path fill="#0272BA" fill-rule="nonzero" d="M303.053 357.863c-5.157 9.877-12.025 19.349-21.173 26.401 3.434 1.447 6.507-3.71 9.763-5.513 2.625-2.625 5.4-5.336 6.783-8.138 3.434 12.026 6.058 25.92 1.987 38.34l.632.999-.27-.276c-.454.184-.362.54-.362.908.815.27.362.27.993.993.454-1.62 2.08-3.526 1.901-5.875 3.165 8.948 5.152 19.165 6.48 28.026l-.27 1.62c-3.704-1.717-7.776-3.343-11.75-3.24 7.684 3.24 15.368 7.328 21.789 13.02 2.44 5.243 4.244 11.939.718 17.28-14.461-20.25-42.849-19.527-65.092-18.263-3.888 1.177-8.046 1.447-11.388 3.618-1.177-4.067 1.08-9.132-1.993-12.75-.902-2.44 2.263-1.987 3.618-2.532 8.103-.899 16.259-1.23 24.408-.994.54-.994-.993-1.355-1.62-1.987-9.315-.907-18.263-1.356-28.388 1.62-1.992-2.981-4.973-3.888-7.144-6.145 7.684-11.664 6.059-29.204 3.888-41.678-2.802-3.348 3.78-5.335 4.612-8.5 3.072-11.841 14.915-5.518 22.782-9.039 13.112-3.78 26.401-4.25 39.059-9.131l.037 1.236z"/>
        <path stroke="#0272BA" stroke-width=".5" d="M303.053 357.863c-5.157 9.877-12.025 19.349-21.173 26.401 3.434 1.447 6.507-3.71 9.763-5.513 2.625-2.625 5.4-5.336 6.783-8.138 3.434 12.026 6.058 25.92 1.987 38.34l.632.999-.27-.276c-.454.184-.362.54-.362.908.815.27.362.27.993.993.454-1.62 2.08-3.526 1.901-5.875 3.165 8.948 5.152 19.165 6.48 28.026l-.27 1.62c-3.704-1.717-7.776-3.343-11.75-3.24 7.684 3.24 15.368 7.328 21.789 13.02 2.44 5.243 4.244 11.939.718 17.28-14.461-20.25-42.849-19.527-65.092-18.263-3.888 1.177-8.046 1.447-11.388 3.618-1.177-4.067 1.08-9.132-1.993-12.75-.902-2.44 2.263-1.987 3.618-2.532 8.103-.899 16.259-1.23 24.408-.994.54-.994-.993-1.355-1.62-1.987-9.315-.907-18.263-1.356-28.388 1.62-1.992-2.981-4.973-3.888-7.144-6.145 7.684-11.664 6.059-29.204 3.888-41.678-2.802-3.348 3.78-5.335 4.612-8.5 3.072-11.841 14.915-5.518 22.782-9.039 13.112-3.78 26.401-4.25 39.059-9.131l.037 1.236z"/>
        <path fill="#0272BA" fill-rule="nonzero" d="M243.832 368.28c-4.428 4.86-9.31 11.486-15.007 14.65-5.152 3.24-10.849 6.96-15.908 10.125 8.046-.092 13.467-6.329 20.428-9.763 1.355 13.381 3.618 27.48-1.896 40.052-1.355.902-2.894-.816-3.888.993 2.533 4.86 9.672 6.33 11.389 12.026 2.079 5.152 1.62 10.212.27 15.66-12.29-5.875-26.94-9.131-41.315-7.236-17.718 2.16-33.632 10.579-50.085 16.638.453-8.948-.994-20.704 8.77-23.76 4.478-2.129 9.177-3.759 14.012-4.86 0-.362.178-1.54-.723-1.901-5.336.362-9.764 2.894-14.645 4.52-.907-15.909 2.349-32.546 5.875-47.823-1.264-8.953-.54-18.263.632-27.394 26.4 7.414 53.616 9.04 82.08 8.132"/>
        <path stroke="#0272BA" stroke-width=".5" d="M243.832 368.28c-4.428 4.86-9.31 11.486-15.007 14.65-5.152 3.24-10.849 6.96-15.908 10.125 8.046-.092 13.467-6.329 20.428-9.763 1.355 13.381 3.618 27.48-1.896 40.052-1.355.902-2.894-.816-3.888.993 2.533 4.86 9.672 6.33 11.389 12.026 2.079 5.152 1.62 10.212.27 15.66-12.29-5.875-26.94-9.131-41.315-7.236-17.718 2.16-33.632 10.579-50.085 16.638.453-8.948-.994-20.704 8.77-23.76 4.478-2.129 9.177-3.759 14.012-4.86 0-.362.178-1.54-.723-1.901-5.336.362-9.764 2.894-14.645 4.52-.907-15.909 2.349-32.546 5.875-47.823-1.264-8.953-.54-18.263.632-27.394 26.4 7.333 53.616 8.959 82.09 8.073z"/>
        <path fill="#231F20" d="M220.687 427.205c.632.637-.902.999-1.62 1.269-9.677-2.263-17.82-1.08-27.664-.907 8.5-3.073 20.704-4.158 29.29-.362"/>
        <path fill="#FFF" d="M144.833 462.645c-4.698 2.16-10.848 2.44-15.276 3.618.178-7.592-1.177-16.546 4.86-22.14 4.86.815 9.401-1.08 13.651-2.889-2.619 6.869-3.24 13.56-3.24 21.422M266.614 462.013c.276 1.81-.27 3.526-1.987 4.25-3.313 1.45-7.082 1.45-10.395 0-1.9-.789-2.882-2.898-2.263-4.86 1.08-2.079 3.888-2.619 6.151-3.24 3.434-.178 6.869 1.177 8.494 3.888M202.786 463.007c.362 3.44-2.802 3.71-4.86 5.243-3.342-.356-6.507 1-9.131-1.355-.54-1.172-1.447-2.533-.632-3.888 3.78-4.606 11.48-5.06 14.645 0M183.746 53.217c24.77-12.717 54.572-14.672 83.603-4.466 6.539 3.116 8.24 3.532 5.648 21.773l-3.305 25.92c-1.118 8.37-2.457 11.626-10.983 11.799-16.983-3.073-41.894-2.381-59.157 2.446-10.611 1.118-10.385-3.37-13.004-14.126L179.82 65.76c-.896-5.718-1.858-9.58 3.915-12.544"/>
        <path fill="#0272BA" fill-rule="nonzero" d="M195.134 61.614l12.96-1.944c5.04-.752 8.9-.572 11.578.54 2.678 1.112 4.253 3.262 4.725 6.448.34 1.898.057 3.855-.81 5.578-.789 1.585-2.135 2.823-3.78 3.477l.038.249c2.403.27 4.217 1.037 5.465 2.3 1.247 1.264 2.04 3.04 2.376 5.308.502 3.37-.357 6.216-2.603 8.532-2.247 2.317-5.546 3.78-9.915 4.46l-14.455 2.16-5.579-37.108zm12.172 12.75l3.019-.454c1.19-.104 2.316-.591 3.207-1.388.711-.752 1.004-1.808.783-2.819-.31-2.084-2.04-2.89-5.19-2.419l-2.818.421.999 6.658zm1.08 7.343l1.166 7.798 3.527-.54c3.139-.472 4.509-2.029 4.109-4.671-.1-1.105-.728-2.094-1.685-2.657-.934-.54-2.203-.68-3.78-.437l-3.337.507zM240.397 81.189l.038 13.667-10.152.033-.108-37.557 12.285-.038c10.206-.025 15.32 3.66 15.341 11.054 0 4.349-2.113 7.72-6.34 10.114l10.984 16.33-11.496.032-8.008-13.64-2.544.005zm-.027-7.63h1.906c3.543 0 5.309-1.572 5.298-4.714 0-2.589-1.74-3.878-5.222-3.867h-2.003l.021 8.58z"/>
    </g>
</svg>
